<svg xmlns="http://www.w3.org/2000/svg" width="1240" height="1240"><path d="M0 620.001v620.001l620.25-.251 620.25-.251.251-619.75.251-619.75H0v620.001m.497.499c0 341 .114 480.649.253 310.332s.139-449.317 0-620S.497 279.5.497 620.5m152.679-489.426c-53.167 6.9-97.389 49.332-106.628 102.311-1.959 11.233-2.001 32.758-.085 43.744 2.9 16.627 9.586 33.206 19.259 47.754 6.964 10.474 22.092 25.829 32.321 32.806 7.21 4.917 22.951 13.302 27.707 14.757l2.25.689V547h291v82H128v173.865l-2.25.689c-4.84 1.481-20.536 9.869-27.582 14.74-27.01 18.673-46.096 48.417-51.705 80.577-1.916 10.986-1.874 32.511.085 43.744 11.549 66.226 75.208 112.092 141.452 101.914 14.42-2.216 23.321-5.021 36.5-11.503 33.504-16.479 57.243-45.569 66.701-81.739 2.842-10.87 3.091-13.149 3.191-29.287.081-13.217-.318-19.473-1.634-25.561-8.592-39.755-33.056-71.074-68.983-88.313L212.05 802.5l-.025-44.75L212 713h207v167h83v124h84V880h82v124h85V880h83V713h82v86.531c0 81.511-.102 86.567-1.75 87.146-20.252 7.11-43.242 24.512-57.133 43.246-14.959 20.176-22.754 42.602-23.835 68.577-1.512 36.318 10.156 66.565 35.718 92.592 20.356 20.726 41.715 31.895 69.844 36.524 12.837 2.112 35.121 1.362 47.156-1.587 38.111-9.34 68.223-33.526 85.112-68.363 13.483-27.813 15.737-63.427 5.877-92.858-8.289-24.741-23.637-45.907-44.489-61.353-7.71-5.712-22.511-13.927-29.25-16.237l-3.25-1.114V629H836v-82.014l65.527.257 65.527.257 3.367 7.746c4.065 9.352 11.218 21.015 17.562 28.637 25.95 31.175 61.804 47.352 101.517 45.802 33.031-1.29 60.119-13.163 83.551-36.622 23.033-23.06 35.094-50.094 36.663-82.175 2.403-49.149-23.759-94.632-67.395-117.169-18.504-9.557-36.052-13.719-57.84-13.719-34.186 0-63.483 12.052-87.51 36-10.966 10.929-19.597 23.308-25.972 37.25l-4.459 9.75H836V296h-83V172h-85v124h-82V172h-84v124h-83v167H212V373.415l8.736-3.934C268.008 348.19 296.76 301.716 294.653 250c-1.298-31.845-13.919-60.527-36.551-83.06-11.132-11.082-21.329-18.267-35.509-25.018-21.019-10.006-45.917-13.897-69.417-10.848m7.324 84.335c-11.706 2.901-22.066 11.289-27.627 22.369-3.19 6.357-3.373 7.292-3.373 17.222 0 9.734.233 10.992 3.193 17.241 4.133 8.724 11.342 15.933 20.066 20.066 6.249 2.96 7.507 3.193 17.241 3.193 9.795 0 10.941-.216 17.074-3.217 16.26-7.957 26.243-26.725 23.127-43.48-3.059-16.447-14.767-29.148-30.661-33.261-6.986-1.807-12.137-1.843-19.04-.133M503 587.5V795h249V380H503v207.5m569.831-121.98c-7.958 2.545-16.851 9.264-21.56 16.289-5.074 7.57-7.271 14.426-7.271 22.691 0 20.045 14.284 36.923 34.381 40.626 12.407 2.286 25.649-2.025 35.028-11.404 16.327-16.328 16.521-40.285.463-57.264-7.756-8.201-15.789-11.764-27.372-12.139-5.972-.194-10.571.21-13.669 1.201M544 671v42h84v-84h-84v42M158.5 881.346c-11.789 3.904-20.708 11.65-25.807 22.413-2.96 6.249-3.193 7.507-3.193 17.241 0 9.494.27 11.05 2.822 16.248 8.337 16.983 26.889 27.111 43.875 23.953 17.525-3.26 30.744-16.479 34.004-34.004 3.147-16.924-7.439-36.353-23.948-43.954-4.613-2.123-7.537-2.705-14.753-2.935-5.556-.177-10.531.22-13 1.038m789.5 83.47c-7.429 2.466-12.731 5.979-18.188 12.048-18.476 20.55-12.169 51.449 13.046 63.91 7.111 3.515 8.079 3.726 17.09 3.726 8.663 0 10.178-.297 16.275-3.185 20.808-9.857 29.788-31.664 21.747-52.815-3.202-8.425-14.025-19.255-22.47-22.484-8.215-3.142-20.089-3.66-27.5-1.2" fill="undefined" fill-rule="evenodd"/></svg>