<svg xmlns="http://www.w3.org/2000/svg" width="1240" height="1240"><path d="M579.5 88.041c-24.074 1.599-30.305 2.406-57.5 7.45-26.862 4.981-34.019 6.739-60 14.736-65.927 20.292-125.671 51.699-178 93.574-81.276 65.038-140.968 153.34-172.849 255.699-7.891 25.335-9.748 32.792-14.692 59-5.361 28.416-5.779 31.795-7.933 64l-2.274 34 1.906 32.5c1.847 31.478 2.097 33.537 7.972 65.485 5.508 29.954 6.89 35.64 15.039 61.896 35.97 115.89 107.596 213.09 206.831 280.683 42.721 29.098 90.347 51.849 142.385 68.015 26.13 8.118 32.392 9.654 61.081 14.981 30.712 5.702 33.271 6.016 65.237 8.012l33.272 2.077 33.275-2.089c31.88-2.001 34.601-2.335 64.91-7.966 27.898-5.182 34.985-6.91 59.988-14.626 102.485-31.628 190.407-90.801 256.261-172.468 42.165-52.291 73.337-111.001 93.711-176.5 8.024-25.795 9.672-32.481 14.913-60.5 5.643-30.165 5.983-32.909 8.014-64.75l2.121-33.25-2.109-33.25c-2.025-31.946-2.342-34.505-8.084-65.25-5.319-28.478-6.952-35.137-14.839-60.5-52.34-168.318-179.766-295.583-348.636-348.194-25.809-8.041-32.466-9.684-60.5-14.937-29.561-5.539-33.377-6.024-62-7.872-35.934-2.321-41.934-2.318-77.5.044m-27.111 174.243l-11.111.967-.679 10.505c-.373 5.778-.366 26.797.016 46.711l.695 36.206-20.405.661c-11.223.363-26.48.669-33.905.679-7.425.01-14.038.359-14.695.777-.895.569-1.372 17.922-1.906 69.332l-.713 68.572-54.593 1.18c-79.907 1.726-91.567 2.034-102.343 2.709l-9.75.61.088-10.846c.086-10.48 1.246-32.854 2.706-52.192l.706-9.345 5.023-2.655c16.04-8.477 30.303-21.13 41.181-36.534 1.213-1.716 2.582-3.571 3.042-4.121 3.347-3.999 7.373-11.074 9.675-17 1.495-3.85 3.41-8.518 4.254-10.373 3.112-6.837 5.607-36.371 3.739-44.25a297.18 297.18 0 01-.903-3.877l-.875-4.373c-.825-4.134-1.221-5.033-6.528-14.8-10.945-20.145-35.56-28.99-62.108-22.317-9.914 2.491-29.163 12.052-35.183 17.474-.925.834-4.075 3.52-7 5.968-26.264 21.993-45.567 59.422-45.924 89.048-.115 9.614.556 15.856 2.097 19.5.465 1.1 1.31 3.465 1.877 5.255 1.576 4.97 7.798 13.777 12.981 18.373 2.559 2.269 7.443 5.427 10.855 7.018 3.411 1.591 6.382 3.221 6.602 3.623.219.402-.19 9.056-.911 19.231l-2.863 40.5c-1.842 26.079-3.75 73.614-2.985 74.379.296.296 51.393.618 113.549.716 62.157.099 113.196.362 113.42.587.324.324.701 48.785.525 67.518l-.04 4.2-18.75-.451c-10.312-.248-47.55-.92-82.75-1.494s-66.025-1.445-68.5-1.936c-2.475-.491-16.605-1.171-31.4-1.511l-26.9-.619.673 38.306c.774 44.097 1.318 59.152 2.664 73.729.53 5.733.963 13.608.963 17.501v7.078l-5.818 2.747c-13.141 6.206-22.263 15.613-26.07 26.884-1.154 3.417-1.989 6.294-1.855 6.393 1.032.763 15.826 5.926 20.012 6.984 2.877.727 9.281 2.991 14.231 5.03 8.39 3.456 29.757 9.433 33.783 9.451.981.004 3.906 1.061 6.5 2.348s10.567 4.038 17.717 6.112c7.15 2.075 20.175 5.99 28.945 8.698 17.676 5.46 28.421 8.317 29.022 7.716.217-.217-.431-3.313-1.44-6.88-7.144-25.24-28.064-50.998-52.269-64.355-4.528-2.498-6.889-4.445-7.188-5.926-.246-1.213-.708-13.455-1.028-27.205-.32-13.75-.815-28.415-1.099-32.589-.284-4.174-.056-8.798.505-10.275 1.016-2.671 1.064-2.682 8.787-2.111 4.271.316 16.315.988 26.765 1.493 10.45.505 27.775 1.389 38.5 1.966 10.725.576 35.7 1.4 55.5 1.83 23.987.522 36.701 1.169 38.101 1.94 2.083 1.147 2.109 1.662 2.879 58.452.427 31.512 1.057 62.019 1.399 67.794l.621 10.5 6 .646c3.3.356 18.754.992 34.342 1.413 32.368.876 31.596.662 30.558 8.482-.354 2.669-.323 7.42.069 10.557l.713 5.704 31.983-.558c17.591-.307 32.232-.808 32.537-1.113.305-.304.845-4.665 1.2-9.691.522-7.377 1.015-9.406 2.563-10.538 1.557-1.139 8.438-1.402 36.655-1.402 38.1 0 37.88-.035 37.88 5.946 0 1.542.268 4.143.595 5.779l.595 2.974 27.655-4.729c31.88-5.452 34.608-6.108 37.776-9.084 2.569-2.413 8.688-3.734 17.721-3.826 6.383-.066 24.607-4.312 39.848-9.284 8.321-2.715 9.787-3.523 10.377-5.719 1.376-5.126 3.242-31.76 5.433-77.557.631-13.2 1.452-28.725 1.824-34.5l.676-10.5 5.5-.695c10.002-1.264 60.409-2.796 61.34-1.865.814.814 1.014 38.659.212 39.991-.189.313-.615 13.732-.946 29.819-.475 23.044-.338 29.244.645 29.222.687-.015 13.153-5.977 27.702-13.25l26.453-13.222 1.17-4.5c.644-2.475 1.693-11.475 2.332-20 .638-8.525 1.591-20.9 2.118-27.5 1.28-16.044 2.029-34.718 2.642-65.845.486-24.742.43-25.823-1.33-25.316-1.011.292-23.213.791-49.338 1.109-26.125.318-54.25.839-62.5 1.158l-15 .581-.3-35.754c-.24-28.506-.037-35.92 1-36.578 1.494-.947 79.287-.937 94.29.012 8.934.566 10.03.844 10.367 2.633.207 1.1 1.165 3.125 2.129 4.5.963 1.375 2.094 3.625 2.512 5 1.414 4.647 5.345 11.64 7.914 14.077 1.404 1.333 2.561 2.757 2.571 3.164.077 3.326 19.975 22.96 26.517 26.166 12.356 6.055 18.679 8.53 23 9.003 16.411 1.797 20.299 1.818 25.627.142 5.535-1.742 15.987-6.462 16.873-7.619.275-.36 1.912-1.377 3.638-2.261 3.828-1.961 10.556-8.499 12.996-12.63.989-1.673 2.15-3.042 2.582-3.042.431 0 .784-.46.784-1.021 0-.562 1.154-2.766 2.565-4.899 3.963-5.987 9.356-21.478 11.498-33.023 4.683-25.248.734-53.969-10.873-79.057-10.709-23.149-24.513-38.011-44.889-48.333-6.926-3.508-31.425-6.893-32.878-4.543-.309.5-.949.669-1.423.376-.474-.293-1.163-.045-1.532.552-.369.596-1.307.84-2.084.542-.778-.299-2.939.314-4.803 1.361-1.864 1.047-3.659 1.633-3.989 1.304-.33-.33-1.611.333-2.846 1.473-1.235 1.14-3.821 2.954-5.746 4.03-4.649 2.599-15 12.182-15 13.887 0 .743-.675 1.351-1.5 1.351s-1.5.441-1.5.981c0 .539-1.606 3.49-3.568 6.558-4.181 6.536-8.562 16.026-11.067 23.97l-1.78 5.649-12.043-.579c-6.623-.319-29.705-.845-51.292-1.168l-39.25-.589.007-2.161c.004-1.188-.438-8.911-.982-17.161-.543-8.25-1.451-27.6-2.017-43-.911-24.802-2.622-49.596-4.798-69.5l-.71-6.5-18-.619c-9.9-.341-24.826-.971-33.168-1.4l-15.168-.781-.588-9.1c-2.439-37.761-6.469-82.753-7.513-83.88-.65-.702-67.163-2.911-67.85-2.254-.443.424 2.639 60.285 3.915 76.034.624 7.7.956 14.9.739 16-.385 1.954-1.193 2-34.881 2H613.5l-.693-6.5c-.381-3.575-1.153-24.405-1.715-46.289-.563-21.885-1.29-40.222-1.616-40.75-.756-1.223-42.012-.989-57.087.323m-266.943 59.193c-7.491 3.427-15.32 11.134-19.818 19.507-3.557 6.621-3.87 7.837-3.839 14.942.026 5.797.511 8.519 1.938 10.865 3.857 6.343 9.936 9.239 18.062 8.604 5.086-.397 7.076-1.058 12.712-4.215 5.859-3.284 14.515-13.994 16.413-20.31.723-2.403 1.727-5.27 2.232-6.37 1.387-3.023.336-11.496-2.058-16.59-3.973-8.452-15.12-11.248-25.642-6.433M542.963 470.25c-.047 57.157-1.027 306.019-1.225 311.25l-.151 4 35.456.803c36.941.836 176.869.152 180.591-.883 2.117-.588 2.141-.921 2.867-39.756 1.392-74.433-.81-303.064-3.047-316.414l-.545-3.25H543l-.037 44.25m459.476 33.042c-5.983 3.508-9.771 7.626-12.509 13.596-2.493 5.435-2.93 7.63-2.93 14.701 0 10.146 1.465 17.46 4.055 20.24 1.07 1.148 1.945 2.717 1.945 3.486 0 .77 2.323 3.722 5.162 6.561 6.076 6.076 13.156 8.745 20.125 7.587 7.1-1.179 9.636-3.007 15.287-11.022 6.222-8.823 5.315-30.302-1.799-42.59-1.621-2.801-9.952-10.81-11.275-10.84-.55-.013-2.125-.601-3.5-1.306-3.297-1.692-11.962-1.938-14.561-.413M579.862 644.237c-.199.695-.137 16.563.138 35.263l.5 34 33.5.279c18.425.154 34.518.031 35.763-.272l2.263-.552-.263-34.727-.263-34.728-35.638-.263c-28.021-.206-35.716.008-36 1" fill="undefined" fill-rule="evenodd"/></svg>